<svg width="17" height="17" viewBox="0 0 17 17" fill="none" xmlns="http://www.w3.org/2000/svg">
<path d="M6.78125 3.40625C6.71875 3.625 6.5625 3.8125 6.34375 3.90625C6 4.0625 5.6875 4.25 5.375 4.46875C5.1875 4.625 4.9375 4.65625 4.71875 4.59375L2.84375 4L1.71875 6L3.125 7.3125C3.3125 7.46875 3.40625 7.71875 3.375 7.9375C3.34375 8.3125 3.34375 8.6875 3.375 9.0625C3.40625 9.28125 3.3125 9.53125 3.125 9.6875L1.71875 11L2.84375 13L4.71875 12.4062C4.9375 12.3438 5.1875 12.4062 5.375 12.5312C5.6875 12.75 6 12.9375 6.34375 13.0938C6.5625 13.1875 6.71875 13.375 6.78125 13.5938L7.1875 15.5H9.5L9.9375 13.5938C9.96875 13.375 10.125 13.1875 10.3438 13.0938C10.6875 12.9375 11 12.75 11.3125 12.5312C11.5 12.4062 11.75 12.3438 11.9688 12.4062L13.8438 13L14.9688 11L13.5625 9.6875C13.375 9.53125 13.2812 9.28125 13.3125 9.0625C13.3438 8.6875 13.3438 8.3125 13.3125 7.9375C13.2812 7.71875 13.375 7.46875 13.5625 7.3125L14.9688 6L13.8438 4L11.9688 4.59375C11.75 4.65625 11.5 4.625 11.3125 4.46875C11 4.25 10.6875 4.0625 10.3438 3.90625C10.125 3.8125 9.96875 3.625 9.9375 3.40625L9.5 1.5H7.1875L6.78125 3.40625ZM7 0H9.6875C10.2812 0 10.7812 0.40625 10.9062 0.96875L11.3125 2.71875C11.5 2.8125 11.6875 2.9375 11.875 3.03125L13.5938 2.5C14.125 2.34375 14.75 2.5625 15.0312 3.09375L16.375 5.40625C16.6875 5.9375 16.5938 6.5625 16.1562 6.96875L14.8438 8.1875C14.8438 8.40625 14.8438 8.625 14.8438 8.84375L16.1562 10.0312C16.5938 10.4375 16.6875 11.0625 16.375 11.5938L15.0312 13.9062C14.75 14.4375 14.1562 14.6562 13.5938 14.5L11.875 13.9688C11.6875 14.0938 11.5 14.1875 11.3125 14.2812L10.9062 16.0312C10.7812 16.5938 10.2812 17 9.6875 17H7C6.40625 17 5.90625 16.5938 5.78125 16.0312L5.375 14.2812C5.1875 14.1875 5 14.0938 4.8125 13.9688L3.125 14.5C2.5625 14.6562 1.9375 14.4375 1.65625 13.9062L0.3125 11.5938C0 11.0625 0.125 10.4375 0.53125 10.0312L1.84375 8.84375C1.84375 8.625 1.84375 8.375 1.84375 8.1875L0.53125 6.96875C0.125 6.5625 0.03125 5.9375 0.3125 5.40625L1.65625 3.09375C1.9375 2.5625 2.5625 2.34375 3.125 2.5L4.8125 3.03125C5 2.9375 5.1875 2.8125 5.375 2.71875L5.78125 0.96875C5.90625 0.40625 6.40625 0 7 0ZM9.84375 8.5C9.84375 7.65625 9.1875 7 8.34375 7C7.5 7 6.84375 7.65625 6.84375 8.5C6.84375 9.34375 7.5 10 8.34375 10C9.1875 10 9.84375 9.34375 9.84375 8.5ZM8.34375 5.5C10 5.5 11.3438 6.84375 11.3438 8.5C11.3438 10.1562 10 11.5 8.34375 11.5C6.6875 11.5 5.34375 10.1562 5.34375 8.5C5.34375 6.84375 6.6875 5.5 8.34375 5.5Z" fill="white"/>
</svg>
