<svg width="16" height="16" viewBox="8 8 16 16" fill="none" xmlns="http://www.w3.org/2000/svg">
<path d="M12.5312 9.28125L10.5625 11.25H23.25C23.6562 11.25 24 11.5938 24 12C24 12.4062 23.6562 12.75 23.25 12.75H10.5625L12.5312 14.7188C12.8125 15 12.8125 15.5 12.5312 15.7812C12.25 16.0625 11.75 16.0625 11.4688 15.7812L8.21875 12.5312C7.9375 12.25 7.9375 11.75 8.21875 11.4688L11.4688 8.21875C11.75 7.9375 12.25 7.9375 12.5312 8.21875C12.8125 8.5 12.8125 9 12.5312 9.28125ZM19.4688 17.2812C19.1875 17 19.1875 16.5 19.4688 16.2188C19.75 15.9375 20.25 15.9375 20.5312 16.2188L23.7812 19.4688C24.0625 19.75 24.0625 20.25 23.7812 20.5312L20.5312 23.7812C20.25 24.0625 19.75 24.0625 19.4688 23.7812C19.1875 23.5 19.1875 23 19.4688 22.7188L21.4375 20.75H8.75C8.34375 20.75 8 20.4062 8 20C8 19.5938 8.34375 19.25 8.75 19.25H21.4375L19.4688 17.2812Z" fill="#0066F5"/>
</svg>
