<svg width="16" height="16" viewBox="0 0 16 16" fill="none" xmlns="http://www.w3.org/2000/svg">
<path d="M13 7.25V2C13 1.71875 12.7812 1.5 12.5 1.5H3.5C3.21875 1.5 3 1.71875 3 2V7.25H13ZM1.5 8V2C1.5 0.90625 2.40625 0 3.5 0H12.5C13.5938 0 14.5 0.90625 14.5 2V14C14.5 15.0938 13.5938 16 12.5 16H3.5C2.40625 16 1.5 15.0938 1.5 14V8ZM13 14V8.75H3V14C3 14.2812 3.21875 14.5 3.5 14.5H12.5C12.7812 14.5 13 14.2812 13 14ZM6 4.75C6 5.15625 5.65625 5.5 5.25 5.5C4.84375 5.5 4.5 5.15625 4.5 4.75V4.25C4.5 3.5625 5.0625 3 5.75 3H10.25C10.9375 3 11.5 3.5625 11.5 4.25V4.75C11.5 5.15625 11.1562 5.5 10.75 5.5C10.3438 5.5 10 5.15625 10 4.75V4.5H6V4.75ZM5.75 10.5H10.25C10.9375 10.5 11.5 11.0625 11.5 11.75V12.25C11.5 12.6562 11.1562 13 10.75 13C10.3438 13 10 12.6562 10 12.25V12H6V12.25C6 12.6562 5.65625 13 5.25 13C4.84375 13 4.5 12.6562 4.5 12.25V11.75C4.5 11.0625 5.0625 10.5 5.75 10.5Z" fill="#0066F5"/>
</svg>
