<svg width="17" height="17" viewBox="0 0 17 17" fill="none" xmlns="http://www.w3.org/2000/svg">
<path d="M11.2188 0.5V2.5H13.2188C13.5 2.5 13.7188 2.71875 13.7188 3C13.7188 3.28125 13.5 3.5 13.2188 3.5H11.2188V5.5C11.2188 5.78125 11 6 10.7188 6C10.4375 6 10.2188 5.78125 10.2188 5.5V3.5H8.21875C7.9375 3.5 7.71875 3.28125 7.71875 3C7.71875 2.71875 7.9375 2.5 8.21875 2.5H10.2188V0.5C10.2188 0.21875 10.4375 0 10.7188 0C11 0 11.2188 0.21875 11.2188 0.5ZM5 8.3125C4.84375 8.59375 4.5625 8.8125 4.25 8.84375L1.5 9.25L3.5 11.1875C3.71875 11.4062 3.84375 11.75 3.78125 12.0625L3.3125 14.7812L5.75 13.5C6.03125 13.3438 6.40625 13.3438 6.6875 13.5L9.125 14.7812L8.65625 12.0625C8.59375 11.75 8.71875 11.4062 8.9375 11.1875L10.9375 9.25L8.1875 8.84375C7.875 8.8125 7.59375 8.59375 7.4375 8.3125L6.21875 5.8125L5 8.3125ZM5.53125 4.90625C5.8125 4.375 6.625 4.375 6.90625 4.90625L8.34375 7.84375L11.5625 8.34375C12.1875 8.40625 12.4375 9.1875 12 9.59375L9.65625 11.9062L10.1875 15.125C10.3125 15.75 9.65625 16.2188 9.125 15.9062L6.21875 14.375L3.3125 15.9062C2.78125 16.2188 2.125 15.75 2.25 15.125L2.78125 11.9062L0.4375 9.59375C0 9.1875 0.25 8.40625 0.875 8.34375L4.09375 7.84375L5.53125 4.90625ZM14.2188 5C14.5 5 14.7188 5.21875 14.7188 5.5V6.5H15.7188C16 6.5 16.2188 6.71875 16.2188 7C16.2188 7.28125 16 7.5 15.7188 7.5H14.7188V8.5C14.7188 8.78125 14.5 9 14.2188 9C13.9375 9 13.7188 8.78125 13.7188 8.5V7.5H12.7188C12.4375 7.5 12.2188 7.28125 12.2188 7C12.2188 6.71875 12.4375 6.5 12.7188 6.5H13.7188V5.5C13.7188 5.21875 13.9375 5 14.2188 5Z" fill="#071D49"/>
</svg>
