<svg width="28" height="29" viewBox="0 0 28 29" fill="none" xmlns="http://www.w3.org/2000/svg">
<path d="M21.0547 23.4141L5.08594 7.44531C3.55469 9.35938 2.625 11.8203 2.625 14.5C2.625 20.7891 7.71094 25.875 14 25.875C16.6797 25.875 19.1406 24.9453 21.0547 23.4141ZM22.9141 21.5547C24.4453 19.6406 25.375 17.1797 25.375 14.5C25.375 8.21094 20.2891 3.125 14 3.125C11.3203 3.125 8.85938 4.05469 6.94531 5.58594L22.9141 21.5547ZM0 14.5C0 6.78906 6.28906 0.5 14 0.5C21.7109 0.5 28 6.78906 28 14.5C28 22.2109 21.7109 28.5 14 28.5C6.28906 28.5 0 22.2109 0 14.5Z" fill="#CF451C"/>
</svg>
