<svg width="17" height="16" viewBox="0 0 17 16" fill="none" xmlns="http://www.w3.org/2000/svg">
<path d="M8.375 1.5C6.03125 1.5 3.90625 2.75 2.71875 4.75C1.5625 6.78125 1.5625 9.25 2.71875 11.25C3.90625 13.2812 6.03125 14.5 8.375 14.5C10.6875 14.5 12.8125 13.2812 14 11.25C15.1562 9.25 15.1562 6.78125 14 4.75C12.8125 2.75 10.6875 1.5 8.375 1.5ZM8.375 16C5.5 16 2.875 14.5 1.4375 12C0 9.53125 0 6.5 1.4375 4C2.875 1.53125 5.5 0 8.375 0C11.2188 0 13.8438 1.53125 15.2812 4C16.7188 6.5 16.7188 9.53125 15.2812 12C13.8438 14.5 11.2188 16 8.375 16ZM11.9062 6.53125L7.90625 10.5312C7.59375 10.8438 7.125 10.8438 6.84375 10.5312L4.84375 8.53125C4.53125 8.25 4.53125 7.78125 4.84375 7.5C5.125 7.1875 5.59375 7.1875 5.90625 7.5L7.375 8.96875L10.8438 5.5C11.125 5.1875 11.5938 5.1875 11.9062 5.5C12.1875 5.78125 12.1875 6.25 11.9062 6.53125Z" fill="#338700"/>
</svg>
