<svg width="17" height="16" viewBox="0 0 17 16" fill="none" xmlns="http://www.w3.org/2000/svg">
<path d="M8.375 1.5C6.03125 1.5 3.90625 2.75 2.71875 4.75C1.5625 6.78125 1.5625 9.25 2.71875 11.25C3.90625 13.2812 6.03125 14.5 8.375 14.5C10.6875 14.5 12.8125 13.2812 14 11.25C15.1562 9.25 15.1562 6.78125 14 4.75C12.8125 2.75 10.6875 1.5 8.375 1.5ZM8.375 16C5.5 16 2.875 14.5 1.4375 12C0 9.53125 0 6.5 1.4375 4C2.875 1.53125 5.5 0 8.375 0C11.2188 0 13.8438 1.53125 15.2812 4C16.7188 6.5 16.7188 9.53125 15.2812 12C13.8438 14.5 11.2188 16 8.375 16ZM8.375 4C8.78125 4 9.125 4.34375 9.125 4.75V8.25C9.125 8.6875 8.78125 9 8.375 9C7.9375 9 7.625 8.6875 7.625 8.25V4.75C7.625 4.34375 7.9375 4 8.375 4ZM9.375 11C9.375 11.5625 8.90625 12 8.375 12C7.8125 12 7.375 11.5625 7.375 11C7.375 10.4688 7.8125 10 8.375 10C8.90625 10 9.375 10.4688 9.375 11Z" fill="#CF451C"/>
</svg>
