<svg width="45" height="35" viewBox="0 0 45 35" fill="none" xmlns="http://www.w3.org/2000/svg">
<path d="M18.75 0C22.4219 0 25.7031 1.5625 28.0469 4.14062C28.8281 3.90625 29.7656 3.75 30.625 3.75C35.7812 3.75 40 7.96875 40 13.125C40 14.1406 39.8438 15.1562 39.5312 16.0938C42.8125 17.7344 45 21.0938 45 25C45 30.5469 40.5469 35 35 35H11.25C5.07812 35 0 30 0 23.75C0 19.2969 2.57812 15.4688 6.32812 13.6719C6.25 13.2812 6.25 12.8906 6.25 12.5C6.25 5.625 11.875 0 18.75 0ZM10 12.5C10 13.125 10.0781 13.8281 10.2344 14.375C10.3906 15.3906 9.84375 16.3281 8.98438 16.6406C5.9375 17.5781 3.75 20.3906 3.75 23.75C3.75 27.8906 7.10938 31.25 11.25 31.25H35C38.4375 31.25 41.25 28.4375 41.25 25C41.25 22.1094 39.2188 19.6094 36.4844 18.9062C35.9375 18.8281 35.4688 18.3594 35.2344 17.8125C35 17.2656 35.0781 16.6406 35.3906 16.0938C35.9375 15.2344 36.25 14.2188 36.25 13.125C36.25 10 33.75 7.5 30.625 7.5C29.7656 7.5 28.9062 7.73438 28.2031 8.04688C27.4219 8.4375 26.4062 8.20312 25.8594 7.42188C24.2969 5.23438 21.7188 3.75 18.75 3.75C13.9062 3.75 10 7.65625 10 12.5ZM23.8281 26.9531C23.125 27.6562 21.9531 27.6562 21.1719 26.9531L16.1719 21.9531C15.4688 21.25 15.4688 20.0781 16.1719 19.2969C16.9531 18.5938 18.125 18.5938 18.8281 19.2969L20.625 21.0938V14.375C20.625 13.3594 21.4844 12.5 22.5 12.5C23.5156 12.5 24.375 13.3594 24.375 14.375V21.0938L26.1719 19.2969C26.875 18.5938 28.125 18.5938 28.8281 19.2969C29.5312 20 29.5312 21.25 28.8281 21.9531L23.8281 26.9531Z" fill="#636363"/>
</svg>
