<svg width="16" height="16" viewBox="0 0 16 16" fill="none" xmlns="http://www.w3.org/2000/svg">
<path d="M1.625 12.0312C0.59375 10.7812 0 9.1875 0 7.5C0 3.375 3.59375 0 8 0C12.4062 0 16 3.375 16 7.5C16 11.6562 12.4062 15 8 15C6.875 15 5.78125 14.7812 4.78125 14.375L1.15625 15.9375C1.03125 16 0.9375 16 0.8125 16C0.34375 16 0 15.6562 0 15.2188C0 15.0625 0.03125 14.9375 0.09375 14.8125L1.625 12.0312ZM2.78125 11.0938C3.15625 11.5625 3.21875 12.2188 2.9375 12.75L2.375 13.7812L4.21875 13C4.5625 12.8438 5 12.8438 5.375 13C6.15625 13.3125 7.0625 13.5 8 13.5C11.6875 13.5 14.5 10.7188 14.5 7.5C14.5 4.28125 11.6875 1.5 8 1.5C4.3125 1.5 1.5 4.28125 1.5 7.5C1.5 8.84375 1.96875 10.0625 2.78125 11.0938Z" fill="#0066F5"/>
</svg>
