<svg width="16" height="16" viewBox="0 0 16 16" fill="none" xmlns="http://www.w3.org/2000/svg">
<path d="M4 1.5C3.71875 1.5 3.5 1.71875 3.5 2V14C3.5 14.2812 3.71875 14.5 4 14.5H12C12.2812 14.5 12.5 14.2812 12.5 14V6.5H9.75C8.5 6.5 7.5 5.5 7.5 4.25V1.5H4ZM9 2.125V4.25C9 4.65625 9.34375 5 9.75 5H11.875L9 2.125ZM4 0H8.1875C8.71875 0 9.21875 0.21875 9.59375 0.59375L13.4062 4.40625C13.7812 4.78125 14 5.3125 14 5.84375V14C14 15.0938 13.0938 16 12 16H4C2.90625 16 2 15.0938 2 14V2C2 0.90625 2.90625 0 4 0ZM8 7.5C8.40625 7.5 8.75 7.84375 8.75 8.25V9.75H10.25C10.6562 9.75 11 10.0938 11 10.5C11 10.9062 10.6562 11.25 10.25 11.25H8.75V12.75C8.75 13.1562 8.40625 13.5 8 13.5C7.59375 13.5 7.25 13.1562 7.25 12.75V11.25H5.75C5.34375 11.25 5 10.9062 5 10.5C5 10.0938 5.34375 9.75 5.75 9.75H7.25V8.25C7.25 7.84375 7.59375 7.5 8 7.5Z" fill="white"/>
</svg>
