<svg width="16" height="17" viewBox="0 0 16 17" fill="none" xmlns="http://www.w3.org/2000/svg">
<path d="M5.25 0.65625C5.40625 0.25 5.78125 0 6.1875 0H9.8125C10.2188 0 10.5938 0.25 10.75 0.65625L11.25 2H14.25C14.6562 2 15 2.34375 15 2.75C15 3.15625 14.6562 3.5 14.25 3.5H1.75C1.34375 3.5 1 3.15625 1 2.75C1 2.34375 1.34375 2 1.75 2H4.75L5.25 0.65625ZM2.625 14.6562L1.90625 5H3.40625L4.125 14.5312C4.125 14.8125 4.34375 15 4.625 15H11.4062C11.6562 15 11.875 14.8125 11.9062 14.5312L12.5938 5H14.0938L13.375 14.6562C13.3125 15.6875 12.4375 16.5 11.4062 16.5H4.625C3.5625 16.5 2.6875 15.6875 2.625 14.6562Z" fill="#0066F5"/>
</svg>
