<svg width="17" height="17" viewBox="0 0 17 17" fill="none" xmlns="http://www.w3.org/2000/svg">
<path d="M1.1875 11.0625C1.34375 10.5938 1.5625 10.1875 1.90625 9.84375L11.0938 0.65625C11.5 0.25 12.0938 0 12.6875 0C13.2812 0 13.875 0.25 14.2812 0.65625L15.4062 1.78125C15.8125 2.1875 16.0625 2.78125 16.0625 3.375C16.0625 3.96875 15.8125 4.5625 15.4062 4.96875L6.21875 14.1562C5.875 14.5 5.46875 14.75 5 14.875L1 15.9688C0.75 16.0312 0.46875 15.9688 0.28125 15.7812C0.09375 15.5938 0 15.3125 0.09375 15.0625L1.1875 11.0625ZM12.1562 1.71875L10.5 3.375L12.6875 5.5625L14.3438 3.90625C14.5 3.78125 14.5625 3.59375 14.5625 3.375C14.5625 3.1875 14.4688 2.96875 14.3438 2.84375L13.2188 1.71875C13.0938 1.59375 12.875 1.5 12.6875 1.5C12.5 1.5 12.2812 1.59375 12.1562 1.71875ZM9.4375 4.4375L2.96875 10.9062C2.8125 11.0625 2.71875 11.25 2.65625 11.4688L1.90625 14.1875L4.59375 13.4375C4.8125 13.375 5 13.25 5.15625 13.0938L11.625 6.625L9.4375 4.4375Z" fill="#0066F5"/>
</svg>
