<svg width="16" height="16" viewBox="0 0 16 16" fill="none" xmlns="http://www.w3.org/2000/svg">
<path d="M1.90625 2H14.0938C15.1562 2 16 2.875 16 3.90625C16 3.9375 16 3.96875 16 4V12C16 13.0938 15.0938 14 14 14H2C0.90625 14 0 13.0938 0 12V4C0 3.96875 0 3.9375 0 3.90625C0 2.875 0.875 2 1.90625 2ZM14.5 6L9.65625 9.6875C8.6875 10.4375 7.3125 10.4375 6.34375 9.6875L1.5 6V12C1.5 12.2812 1.71875 12.5 2 12.5H14C14.2812 12.5 14.5 12.2812 14.5 12V6ZM1.5 3.90625C1.5 4.0625 1.5625 4.1875 1.65625 4.25L7.25 8.5C7.6875 8.8125 8.3125 8.8125 8.75 8.5L14.3438 4.25C14.4375 4.1875 14.5 4.0625 14.5 3.90625C14.5 3.6875 14.3125 3.5 14.0938 3.5H1.90625C1.6875 3.5 1.5 3.6875 1.5 3.90625Z" fill="#071D49"/>
</svg>
