<svg width="18" height="16" viewBox="0 0 18 16" fill="none" xmlns="http://www.w3.org/2000/svg">
<path d="M5.53125 1.5H2.03125C1.75 1.5 1.53125 1.71875 1.53125 2V14C1.53125 14.2812 1.75 14.5 2.03125 14.5H10.0312C10.2812 14.5 10.5312 14.2812 10.5312 14V12.5H12.0312V14C12.0312 15.0938 11.125 16 10.0312 16H2.03125C0.90625 16 0.03125 15.0938 0.03125 14V2C0.03125 0.90625 0.90625 0 2.03125 0H6.1875C6.71875 0 7.21875 0.21875 7.59375 0.59375L11.4375 4.40625C11.8125 4.78125 12.0312 5.3125 12.0312 5.84375V8H10.5312V6.5H7.78125C6.53125 6.5 5.53125 5.5 5.53125 4.25V1.5ZM7.78125 9.5H14.4688L13.5 8.53125C13.1875 8.25 13.1875 7.75 13.5 7.46875C13.7812 7.1875 14.25 7.1875 14.5625 7.46875L16.8125 9.71875C17.0938 10.0312 17.0938 10.5 16.8125 10.7812L14.5625 13.0312C14.25 13.3125 13.7812 13.3125 13.5 13.0312C13.1875 12.75 13.1875 12.25 13.5 11.9688L14.4688 11H7.78125C7.34375 11 7.03125 10.6562 7.03125 10.25C7.03125 9.84375 7.34375 9.5 7.78125 9.5ZM9.90625 5L7.03125 2.125V4.25C7.03125 4.65625 7.34375 5 7.78125 5H9.90625Z" fill="#0066F5"/>
</svg>
