<svg width="16" height="16" viewBox="0 0 16 16" fill="none" xmlns="http://www.w3.org/2000/svg">
<path d="M9 0.75C9 0.34375 9.34375 0 9.75 0H15.25C15.6562 0 16 0.34375 16 0.75V6.25C16 6.65625 15.6562 7 15.25 7C14.8438 7 14.5 6.65625 14.5 6.25V2.5625L7.28125 9.78125C7 10.0625 6.53125 10.0625 6.21875 9.78125C5.9375 9.5 5.9375 9 6.21875 8.71875L13.4375 1.5H9.75C9.34375 1.5 9 1.15625 9 0.75ZM2.5 3H5.25C5.65625 3 6 3.34375 6 3.75C6 4.15625 5.65625 4.5 5.25 4.5H2.5C1.9375 4.5 1.5 4.9375 1.5 5.5V13.5C1.5 14.0625 1.9375 14.5 2.5 14.5H10.5C11.0625 14.5 11.5 14.0625 11.5 13.5V10.75C11.5 10.3438 11.8438 10 12.25 10C12.6562 10 13 10.3438 13 10.75V13.5C13 14.875 11.875 16 10.5 16H2.5C1.125 16 0 14.875 0 13.5V5.5C0 4.125 1.125 3 2.5 3Z" fill="#071D49"/>
</svg>
