<svg width="12" height="16" viewBox="0 0 12 16" fill="none" xmlns="http://www.w3.org/2000/svg">
<path d="M1.5 14C1.5 14.2812 1.71875 14.5 2 14.5H10C10.25 14.5 10.5 14.2812 10.5 14V5H8C7.4375 5 7 4.5625 7 4V1.5H2C1.71875 1.5 1.5 1.75 1.5 2V14ZM2 0H7.15625C7.6875 0 8.1875 0.21875 8.5625 0.59375L11.4062 3.4375C11.7812 3.8125 12 4.3125 12 4.84375V14C12 15.125 11.0938 16 10 16H2C0.875 16 0 15.125 0 14V2C0 0.90625 0.875 0 2 0ZM3.71875 7.5625L4.5 10.1562L5.28125 7.5625C5.375 7.21875 5.65625 7 6 7C6.3125 7 6.625 7.21875 6.71875 7.5625L7.5 10.1562L8.28125 7.5625C8.375 7.15625 8.8125 6.9375 9.1875 7.03125C9.59375 7.15625 9.8125 7.59375 9.71875 7.96875L8.21875 12.9688C8.09375 13.2812 7.8125 13.5 7.5 13.5C7.15625 13.5 6.875 13.3125 6.78125 12.9688L6 10.375L5.21875 12.9688C5.09375 13.2812 4.8125 13.5 4.5 13.5C4.15625 13.5 3.875 13.3125 3.78125 12.9688L2.28125 7.96875C2.15625 7.59375 2.375 7.15625 2.78125 7.03125C3.15625 6.9375 3.59375 7.15625 3.71875 7.5625Z" fill="#071D49"/>
</svg>
