<svg width="12" height="16" viewBox="0 0 12 16" fill="none" xmlns="http://www.w3.org/2000/svg">
<path d="M1.5 14C1.5 14.2812 1.71875 14.5 2 14.5H10C10.25 14.5 10.5 14.2812 10.5 14V5H8C7.4375 5 7 4.5625 7 4V1.5H2C1.71875 1.5 1.5 1.75 1.5 2V14ZM2 0H7.15625C7.6875 0 8.1875 0.21875 8.5625 0.59375L11.4062 3.4375C11.7812 3.8125 12 4.3125 12 4.84375V14C12 15.125 11.0938 16 10 16H2C0.875 16 0 15.125 0 14V2C0 0.90625 0.875 0 2 0ZM4.8125 7.3125L6 8.78125L7.15625 7.3125C7.40625 6.96875 7.875 6.90625 8.1875 7.15625C8.53125 7.4375 8.59375 7.90625 8.3125 8.21875L6.9375 10L8.34375 11.8125C8.59375 12.125 8.53125 12.5938 8.1875 12.8438C7.875 13.0938 7.40625 13.0625 7.15625 12.7188L6 11.25L4.84375 12.7188C4.5625 13.0625 4.09375 13.125 3.78125 12.8438C3.4375 12.5938 3.40625 12.125 3.65625 11.8125L5.03125 10L3.65625 8.21875C3.375 7.90625 3.4375 7.4375 3.78125 7.1875C4.09375 6.90625 4.5625 6.96875 4.8125 7.3125Z" fill="#071D49"/>
</svg>
