<svg width="16" height="16" viewBox="0 0 16 16" fill="none" xmlns="http://www.w3.org/2000/svg">
<path d="M0 2.9375C0 2.40625 0.40625 2 0.9375 2H15.0625C15.5938 2 16 2.40625 16 2.9375C16 3.1875 15.9062 3.40625 15.7188 3.59375L10.5 8.8125V15.0625C10.5 15.5938 10.0938 16 9.5625 16C9.3125 16 9.09375 15.9062 8.90625 15.7188L5.71875 12.5312C5.59375 12.4062 5.5 12.1875 5.5 12V8.8125L0.28125 3.59375C0.09375 3.40625 0 3.1875 0 2.9375ZM2.3125 3.5L6.78125 7.96875C6.9375 8.125 7 8.3125 7 8.5V11.6875L9 13.6875V8.5C9 8.3125 9.09375 8.125 9.21875 7.96875L13.6875 3.5H2.3125Z" fill="#0066F5"/>
</svg>
