<svg width="48" height="48" viewBox="0 0 48 48" fill="none" xmlns="http://www.w3.org/2000/svg">
<path d="M24 0C37.2548 0 48 10.7452 48 24C48 37.2548 37.2548 48 24 48C10.7452 48 0 37.2548 0 24C0 10.7452 10.7452 0 24 0ZM20.5146 15.3105C13.6417 15.3107 11.169 19.7884 11.1689 23.8965C11.1689 27.5373 13.2329 32.4823 20.5146 32.4824H25.8691C30.5225 32.4824 32.6648 30.0103 33.249 28.9395L33.5996 30.8086C33.7944 31.9571 34.476 32.4824 35.5469 32.4824H36.6172C36.6068 32.4266 35.2519 25.1308 34.6699 22.0469C33.969 18.3477 31.0873 15.3105 25.8691 15.3105H20.5146ZM25.2656 17.7051C30.7953 17.7051 32.1973 21.4043 32.1973 23.8965C32.1973 26.6807 30.6395 30.0879 25.2656 30.0879H20.6904C15.5502 30.0879 13.7979 26.817 13.7979 23.8965C13.7979 20.976 15.5502 17.7051 20.6904 17.7051H25.2656Z" fill="#071D49"/>
</svg>
