<svg width="41" height="40" viewBox="0 0 41 40" fill="none" xmlns="http://www.w3.org/2000/svg">
<path d="M20.1562 0C21.25 0 22.3438 0.625 22.8906 1.64062L39.7656 32.8906C40.2344 33.8281 40.2344 35 39.6875 36.0156C39.1406 36.9531 38.125 37.5 37.0312 37.5H3.28125C2.10938 37.5 1.09375 36.9531 0.546875 36.0156C0 35 0 33.8281 0.46875 32.8906L17.3438 1.64062C17.8906 0.625 18.9844 0 20.1562 0ZM20.1562 2.5C19.9219 2.5 19.6875 2.65625 19.6094 2.8125L2.73438 34.0625C2.57812 34.2969 2.57812 34.5312 2.73438 34.6875C2.8125 34.9219 3.04688 35 3.28125 35H37.0312C37.1875 35 37.4219 34.9219 37.5781 34.6875C37.6562 34.5312 37.6562 34.2969 37.5781 34.0625L20.7031 2.8125C20.5469 2.65625 20.3906 2.5 20.1562 2.5ZM20.1562 31.25C19.0625 31.25 18.2812 30.3906 18.2812 29.375C18.2812 28.3594 19.0625 27.5 20.1562 27.5C21.1719 27.5 22.0312 28.3594 22.0312 29.375C22.0312 30.3906 21.1719 31.25 20.1562 31.25ZM20.1562 13.75C21.1719 13.75 22.0312 14.6875 21.9531 15.7031L21.4062 23.8281C21.3281 24.5312 20.7812 25 20.1562 25C19.4531 25 18.9062 24.5312 18.9062 23.8281L18.2812 15.7031C18.2031 14.6875 19.0625 13.75 20.1562 13.75Z" fill="#636363"/>
</svg>
