<svg width="22" height="16" viewBox="11 14 22 16" fill="none" xmlns="http://www.w3.org/2000/svg">
<path d="M32 15.9375V29.0625C32 29.5703 31.5703 30 31.0625 30C30.5547 30 30.125 29.5703 30.125 29.0625V15.9375C30.125 15.4297 30.5547 15 31.0625 15C31.5703 15 32 15.4297 32 15.9375ZM26.7266 23.1641L21.4141 28.4766C21.0625 28.8281 20.4766 28.8281 20.0859 28.4766C19.7344 28.125 19.7344 27.5 20.0859 27.1484L23.7969 23.4375H12.9375C12.4297 23.4375 12 23.0078 12 22.5C12 21.9922 12.4297 21.5625 12.9375 21.5625H23.7969L20.0859 17.8516C19.7344 17.5 19.7344 16.875 20.0859 16.5234C20.4375 16.1719 21.0625 16.1719 21.4141 16.5234L26.7266 21.8359C27.0781 22.1875 27.0781 22.8125 26.7266 23.1641Z" fill="#071D49"/>
</svg>
