<svg width="38" height="38" viewBox="0 0 38 38" fill="none" xmlns="http://www.w3.org/2000/svg">
<path d="M35.625 3.75C18.0469 3.75 3.75 18.0469 3.75 35.625C3.75 36.6406 2.89062 37.5 1.875 37.5C0.859375 37.5 0 36.6406 0 35.625C0 15.9375 15.9375 0 35.625 0C36.6406 0 37.5 0.859375 37.5 1.875C37.5 2.89062 36.6406 3.75 35.625 3.75ZM35.625 14.375C23.9062 14.375 14.375 23.9062 14.375 35.625C14.375 36.6406 13.5156 37.5 12.5 37.5C11.4844 37.5 10.625 36.6406 10.625 35.625C10.625 21.7969 21.7969 10.625 35.625 10.625C36.6406 10.625 37.5 11.4844 37.5 12.5C37.5 13.5156 36.6406 14.375 35.625 14.375ZM25 35.625C25 36.6406 24.1406 37.5 23.125 37.5C22.1094 37.5 21.25 36.6406 21.25 35.625C21.25 27.6562 27.6562 21.25 35.625 21.25C36.6406 21.25 37.5 22.1094 37.5 23.125C37.5 24.1406 36.6406 25 35.625 25C29.7656 25 25 29.7656 25 35.625Z" fill="#8A2ECC"/>
</svg>
