<svg width="17" height="17" viewBox="0 0 17 17" fill="none" xmlns="http://www.w3.org/2000/svg">
<path d="M5.5 1.5H2C1.71875 1.5 1.5 1.71875 1.5 2V14C1.5 14.2812 1.71875 14.5 2 14.5H6.84375C7.03125 15.0312 7.3125 15.5312 7.625 16H2C0.90625 16 0 15.0938 0 14V2C0 0.90625 0.90625 0 2 0H6.1875C6.71875 0 7.21875 0.21875 7.59375 0.59375L11.4062 4.40625C11.7812 4.78125 12 5.3125 12 5.84375V6.53125C11.4688 6.5625 10.9688 6.6875 10.5 6.84375V6.5H7.75C6.5 6.5 5.5 5.5 5.5 4.25V1.5ZM9.875 5L7 2.125V4.25C7 4.65625 7.34375 5 7.75 5H9.875ZM8 12.5C8 10 10 8 12.5 8C15 8 17 10 17 12.5C17 15 15 17 12.5 17C10 17 8 15 8 12.5ZM14.2812 10.5938C14.0625 10.4375 13.75 10.5 13.5938 10.7188L11.9375 13L11.0938 12.1562C10.9062 11.9688 10.5938 11.9688 10.4062 12.1562C10.1875 12.3438 10.1875 12.6562 10.4062 12.8438L11.6562 14.0938C11.75 14.2188 11.9062 14.25 12.0312 14.25C12.1875 14.25 12.3125 14.1562 12.4062 14.0312L14.4062 11.2812C14.5625 11.0625 14.5312 10.75 14.2812 10.5938Z" fill="#0066F5"/>
</svg>
