<svg width="18" height="16" viewBox="0 0 18 16" fill="none" xmlns="http://www.w3.org/2000/svg">
<path d="M0.875 4.9375C0.40625 4.9375 0 4.5625 0 4.0625C0 3.8125 0.09375 3.59375 0.25 3.4375L2.46875 1.21875C2.75 0.9375 3.25 0.9375 3.53125 1.21875L5.75 3.4375C5.90625 3.59375 6 3.8125 6 4.0625C6 4.5625 5.59375 4.9375 5.125 4.9375H3.75V11.25C3.75 12.5 4.75 13.5 6 13.5C7.25 13.5 8.25 12.5 8.25 11.25V4.75C8.25 2.6875 9.9375 1 12 1C14.0625 1 15.75 2.6875 15.75 4.75V11H17.125C17.5938 11 18 11.4062 18 11.875C18 12.125 17.9062 12.3438 17.75 12.5312L15.5312 14.7188C15.25 15.0312 14.75 15.0312 14.4688 14.7188L12.25 12.5312C12.0938 12.3438 12 12.125 12 11.875C12 11.4062 12.4062 11 12.875 11H14.25V4.75C14.25 3.5 13.25 2.5 12 2.5C10.75 2.5 9.75 3.5 9.75 4.75V11.25C9.75 13.3125 8.0625 15 6 15C3.9375 15 2.25 13.3125 2.25 11.25V4.9375H0.875Z" fill="#0066F5"/>
</svg>
