<svg width="13" height="14" viewBox="0 0 13 14" fill="none" xmlns="http://www.w3.org/2000/svg">
<path d="M0.5625 0.585938C0.867188 0.585938 1.125 0.84375 1.125 1.14844V2.97656L1.75781 2.34375C4.10156 0 7.89844 0 10.2422 2.34375C12.5859 4.6875 12.5859 8.48438 10.2422 10.8281C7.89844 13.1719 4.10156 13.1719 1.75781 10.8281C1.40625 10.4766 1.125 10.1016 0.867188 9.70312C0.703125 9.42188 0.796875 9.07031 1.05469 8.92969C1.3125 8.76562 1.66406 8.83594 1.82812 9.11719C2.03906 9.44531 2.27344 9.75 2.55469 10.0312C4.45312 11.9297 7.54688 11.9297 9.44531 10.0312C11.3672 8.13281 11.3672 5.03906 9.44531 3.14062C7.54688 1.24219 4.45312 1.24219 2.55469 3.14062L1.92188 3.77344H3.75C4.07812 3.77344 4.3125 4.03125 4.3125 4.33594C4.3125 4.64062 4.07812 4.89844 3.75 4.89844H0.5625C0.257812 4.89844 0 4.64062 0 4.33594V1.14844C0 0.84375 0.257812 0.585938 0.5625 0.585938Z" fill="#0066F5"/>
</svg>
