<svg width="14" height="14" viewBox="0 0 14 14" fill="none" xmlns="http://www.w3.org/2000/svg">
<path d="M2 1.5C1.71875 1.5 1.5 1.71875 1.5 2V12C1.5 12.2812 1.71875 12.5 2 12.5H12C12.2812 12.5 12.5 12.2812 12.5 12V4.40625C12.5 4.28125 12.4375 4.15625 12.3438 4.0625L10 1.71875V4.5C10 5.0625 9.5625 5.5 9 5.5H4C3.4375 5.5 3 5.0625 3 4.5V1.5H2ZM4.5 1.5V4H8.5V1.5H4.5ZM0 2C0 0.90625 0.90625 0 2 0H9.59375C10.125 0 10.625 0.21875 11 0.59375L13.4062 3C13.7812 3.375 14 3.875 14 4.40625V12C14 13.0938 13.0938 14 12 14H2C0.90625 14 0 13.0938 0 12V2ZM5 9C5 7.90625 5.90625 7 7 7C8.09375 7 9 7.90625 9 9C9 10.0938 8.09375 11 7 11C5.90625 11 5 10.0938 5 9Z" fill="white"/>
</svg>
