<svg width="21" height="21" viewBox="0 0 21 21" fill="none" xmlns="http://www.w3.org/2000/svg">
<path d="M14.375 8.125C14.375 4.6875 11.5625 1.875 8.125 1.875C4.6875 1.875 1.875 4.6875 1.875 8.125C1.875 11.5625 4.6875 14.375 8.125 14.375C11.5625 14.375 14.375 11.5625 14.375 8.125ZM13.1641 14.4922C11.7969 15.5859 10.0391 16.25 8.125 16.25C3.63281 16.25 0 12.6172 0 8.125C0 3.63281 3.63281 0 8.125 0C12.6172 0 16.25 3.63281 16.25 8.125C16.25 10.0391 15.5859 11.7969 14.4922 13.1641L19.7266 18.3984C20.0781 18.75 20.0781 19.375 19.7266 19.7266C19.375 20.0781 18.75 20.0781 18.3984 19.7266L13.1641 14.4922Z" fill="#636363"/>
</svg>
