<svg width="20" height="21" viewBox="0 0 20 21" fill="none" xmlns="http://www.w3.org/2000/svg">
<path d="M10 2.64844L5.27344 7.375H14.7266L10 2.64844ZM3.75 9.25C3.24219 9.25 2.77344 8.9375 2.57812 8.46875C2.38281 8 2.5 7.49219 2.85156 7.10156L9.10156 0.851562C9.60938 0.382812 10.3906 0.382812 10.8984 0.851562L17.1484 7.10156C17.5 7.49219 17.6172 8 17.4219 8.46875C17.2266 8.9375 16.7578 9.25 16.25 9.25H3.75ZM10 18.3516L14.7266 13.625H5.27344L10 18.3516ZM3.75 11.75H16.25C16.7578 11.75 17.2266 12.0625 17.4219 12.5312C17.6172 13 17.5 13.5469 17.1484 13.8984L10.8984 20.1484C10.3906 20.6172 9.60938 20.6172 9.10156 20.1484L2.85156 13.8984C2.5 13.5469 2.38281 13 2.61719 12.5312C2.8125 12.0625 3.24219 11.75 3.75 11.75Z" fill="#B9B4B4"/>
</svg>
