<svg width="17" height="16" viewBox="0 0 17 16" fill="none" xmlns="http://www.w3.org/2000/svg">
<path d="M4.3125 8.75L1.96875 14.0312L13.4062 8.75H4.3125ZM13.4062 7.25L1.96875 1.96875L4.3125 7.25H13.4062ZM0.09375 14.5625L3 8L0.09375 1.4375C0.03125 1.3125 0 1.1875 0 1.03125C0 0.46875 0.46875 0 1.03125 0C1.1875 0 1.3125 0.03125 1.46875 0.09375L16.3125 6.9375C16.75 7.125 17 7.53125 17 8C17 8.46875 16.75 8.875 16.3125 9.0625L1.46875 15.9062C1.3125 15.9688 1.1875 16 1.03125 16C0.46875 16 0 15.5312 0 14.9688C0 14.8125 0.03125 14.6875 0.09375 14.5625Z" fill="white"/>
</svg>
