<svg width="20" height="21" viewBox="0 0 20 21" fill="none" xmlns="http://www.w3.org/2000/svg">
<path d="M18.125 10.5C18.125 6.00781 14.4922 2.375 10 2.375C5.50781 2.375 1.875 6.00781 1.875 10.5C1.875 14.9922 5.50781 18.625 10 18.625C14.4922 18.625 18.125 14.9922 18.125 10.5ZM0 10.5C0 4.99219 4.49219 0.5 10 0.5C15.5078 0.5 20 4.99219 20 10.5C20 16.0078 15.5078 20.5 10 20.5C4.49219 20.5 0 16.0078 0 10.5ZM10 7.375C9.29688 7.375 8.75 7.92188 8.75 8.625C8.75 9.13281 8.32031 9.5625 7.8125 9.5625C7.30469 9.5625 6.875 9.13281 6.875 8.625C6.875 6.90625 8.28125 5.5 10 5.5C11.7188 5.5 13.125 6.90625 13.125 8.625C13.125 10.4609 11.7188 11.2422 10.9375 11.5547V11.6719C10.9375 12.2188 10.5078 12.6094 10 12.6094C9.49219 12.6094 9.0625 12.2188 9.0625 11.6719V11.3594C9.0625 10.5781 9.64844 9.99219 10.2344 9.79688C10.5078 9.71875 10.7422 9.60156 10.9375 9.40625C11.1328 9.25 11.25 9.01562 11.25 8.625C11.25 7.92188 10.7031 7.375 10 7.375ZM8.75 14.875C8.75 14.1719 9.29688 13.625 10 13.625C10.7031 13.625 11.25 14.1719 11.25 14.875C11.25 15.5781 10.7031 16.125 10 16.125C9.29688 16.125 8.75 15.5781 8.75 14.875Z" fill="#005BDB"/>
</svg>
