<svg width="16" height="17" viewBox="0 0 16 17" fill="none" xmlns="http://www.w3.org/2000/svg">
<path d="M8.75 10.3125C8.75 10.7188 8.40625 11.0625 8 11.0625C7.59375 11.0625 7.25 10.7188 7.25 10.3125V2.625L5.28125 4.59375C5 4.875 4.5 4.875 4.21875 4.59375C3.9375 4.3125 3.9375 3.8125 4.21875 3.53125L7.46875 0.28125C7.75 0 8.25 0 8.53125 0.28125L11.7812 3.53125C12.0625 3.8125 12.0625 4.3125 11.7812 4.59375C11.5 4.875 11 4.875 10.7188 4.59375L8.75 2.625V10.3125ZM5.75 10.0625H3C2.71875 10.0625 2.5 10.2812 2.5 10.5625V13.0625C2.5 13.3438 2.71875 13.5625 3 13.5625H13C13.2812 13.5625 13.5 13.3438 13.5 13.0625V10.5625C13.5 10.2812 13.2812 10.0625 13 10.0625H10.25V8.5625H13C14.0938 8.5625 15 9.46875 15 10.5625V13.0625C15 14.1562 14.0938 15.0625 13 15.0625H3C1.90625 15.0625 1 14.1562 1 13.0625V10.5625C1 9.46875 1.90625 8.5625 3 8.5625H5.75V10.0625ZM11 11.8125C11 11.4062 11.3438 11.0625 11.75 11.0625C12.1562 11.0625 12.5 11.4062 12.5 11.8125C12.5 12.2188 12.1562 12.5625 11.75 12.5625C11.3438 12.5625 11 12.2188 11 11.8125Z" fill="white"/>
</svg>
