<svg width="19" height="16" viewBox="0 0 19 16" fill="none" xmlns="http://www.w3.org/2000/svg">
<path d="M9.03125 2.5C7 2.5 5.3125 3.4375 4.03125 4.625C2.84375 5.75 2 7.0625 1.5625 8C2 8.9375 2.84375 10.2812 4.03125 11.375C5.3125 12.5625 7 13.5 9.03125 13.5C11.0625 13.5 12.75 12.5625 14.0312 11.375C15.2188 10.2812 16.0625 8.9375 16.5 8C16.0625 7.0625 15.2188 5.75 14.0312 4.625C12.75 3.4375 11.0625 2.5 9.03125 2.5ZM3 3.53125C4.5 2.15625 6.5 1 9.03125 1C11.5625 1 13.5938 2.15625 15.0625 3.53125C16.5 4.875 17.5 6.5 17.9688 7.625C18.0625 7.875 18.0625 8.125 17.9688 8.375C17.5 9.5 16.5 11.125 15.0625 12.4688C13.5938 13.8438 11.5625 15 9.03125 15C6.5 15 4.5 13.8438 3 12.4688C1.5625 11.125 0.5625 9.5 0.09375 8.375C0 8.125 0 7.875 0.09375 7.625C0.5625 6.5 1.5625 4.875 3 3.53125ZM9.03125 10.5C10.4062 10.5 11.5312 9.375 11.5312 8C11.5312 7.0625 11.0312 6.28125 10.2812 5.84375C10.25 7.6875 8.71875 9.21875 6.875 9.25C7.3125 10 8.09375 10.5 9.03125 10.5ZM6.53125 7.75C6.625 7.75 6.6875 7.75 6.78125 7.75C7.875 7.75 8.78125 6.84375 8.78125 5.75C8.78125 5.65625 8.78125 5.59375 8.78125 5.5C7.59375 5.625 6.65625 6.5625 6.5625 7.75H6.53125ZM7.96875 4.15625C8.3125 4.0625 8.65625 4 9.03125 4C9.3125 4 9.5625 4.03125 9.84375 4.09375C9.84375 4.09375 9.84375 4.09375 9.875 4.09375C11.6562 4.46875 13.0312 6.09375 13.0312 8C13.0312 10.2188 11.25 12 9.03125 12C7.09375 12 5.5 10.6562 5.125 8.84375C5.0625 8.5625 5.03125 8.28125 5.03125 8C5.03125 7.65625 5.0625 7.3125 5.15625 7C5.15625 6.96875 5.15625 6.96875 5.15625 6.9375C5.53125 5.59375 6.625 4.53125 7.96875 4.15625Z" fill="white"/>
</svg>
